<svg width="161" height="27" viewBox="0 0 161 27" fill="none" xmlns="http://www.w3.org/2000/svg">
<mask id="path-1-inside-1_24223_3192" fill="white">
<path fill-rule="evenodd" clip-rule="evenodd" d="M7.15845 20.1073C4.41076 20.1073 2.53349 17.7715 2.53349 14.732C2.53349 11.66 4.46124 9.31206 7.20347 9.31206C8.41223 9.31206 9.68648 9.76677 10.6633 10.5233L11.7629 8.79104C10.4887 7.6881 8.70419 7.07912 7.01247 7.07912C3.02464 7.07912 0 10.4015 0 14.7889C0 19.0924 2.92914 22.3714 6.92515 22.3714C8.63052 22.3714 10.5269 21.7678 11.782 20.6838L10.6633 18.907C9.73287 19.6202 8.41223 20.1073 7.15708 20.1073H7.15845ZM25.6719 11.909C25.6719 9.23086 23.8751 7.28211 20.785 7.28211H15.8626V22.1549H18.3184V16.5793H20.358L23.313 22.1603H26.2217L22.8656 16.2193C24.6323 15.5332 25.6733 13.9363 25.6733 11.909H25.6719ZM34.0623 7.28211L29.0826 22.1495H31.6448L32.8017 18.4144H38.0979L39.2685 22.1495H41.9643L36.9164 7.28482H34.0514L34.0623 7.28211ZM55.082 9.1226V7.29158H45.199V9.45416H51.9455L44.9548 20.3591V22.1617H55.187V19.9734H48.0654L55.1052 9.12666L55.082 9.1226ZM64.5843 13.5114L61.1735 7.29023H58.3222L63.2882 15.9689V22.1535H65.7576V15.9554L70.8205 7.28211H68.1519L64.5856 13.5073L64.5843 13.5114ZM81.7335 14.2881C82.8112 13.6927 83.4252 12.6141 83.4252 11.1485C83.4252 8.71255 81.7471 7.29158 78.9503 7.29158H74.3117V22.1576H79.7279C82.4702 22.1576 84.2983 20.4118 84.2983 17.9488C84.2983 16.065 83.2069 14.7239 81.7062 14.2881H81.7335ZM92.7719 7.29158L87.7923 22.1576H90.3517L91.5113 18.4225H96.8048L97.9781 22.1576H100.679L95.6411 7.29158H92.7856H92.7719ZM112.532 14.2881C113.613 13.6927 114.234 12.6141 114.234 11.1485C114.234 8.71255 112.569 7.29158 109.759 7.29158H105.12V22.1576H110.55C113.292 22.1576 115.134 20.4118 115.134 17.9488C115.134 16.065 114.043 14.7239 112.556 14.2881H112.532ZM124.17 13.5114L120.773 7.29158H117.908L122.874 15.9703V22.1589H125.35V15.9568L130.398 7.29158H127.737L124.163 13.5127L124.17 13.5114ZM107.577 9.47175H109.46C110.838 9.47175 111.775 10.0293 111.775 11.3961C111.775 12.813 110.807 13.4802 109.579 13.4802H107.573V9.47175H107.577ZM110.19 19.9652H107.575V15.567H110.013C111.577 15.567 112.605 16.2707 112.605 17.7729C112.605 19.2751 111.577 19.9652 110.187 19.9652H110.19ZM92.158 16.3154L94.1499 9.91969L96.169 16.3073H92.158V16.3154ZM76.777 9.47175H78.6597C80.0376 9.47175 80.9735 10.0293 80.9735 11.3961C80.9735 12.813 80.0049 13.4802 78.7825 13.4802H76.777V9.47175ZM79.3896 19.9652H76.7838V15.567H79.2259C80.7948 15.567 81.818 16.2707 81.818 17.7729C81.818 19.2751 80.7948 19.9652 79.4032 19.9652H79.3896ZM33.4538 16.3154L35.4457 9.91969L37.4649 16.3073H33.4538V16.3154ZM20.4644 14.3802H18.3225V9.48122H20.4644C22.1111 9.48122 23.1793 10.3108 23.1793 11.9442C23.1793 13.5046 22.2107 14.3775 20.4644 14.3775V14.3802ZM152.794 3.72158C151.791 3.38325 151.397 2.65247 150.827 1.85402C150.213 0.996641 149.346 0.348942 148.346 0C148.818 1.5157 147.915 3.15319 146.391 3.59978C143.692 4.32002 141.346 5.98329 139.784 8.28341C138.223 10.5835 137.552 13.3657 137.894 16.1177C138.237 18.8697 139.57 21.4064 141.649 23.2607C143.727 25.115 146.411 26.1622 149.206 26.2094C152.001 26.2567 154.719 25.3008 156.86 23.5178C159.001 21.7349 160.421 19.2447 160.857 16.5059C161.294 13.7671 160.719 10.9638 159.238 8.61229C157.756 6.26073 155.469 4.51911 152.795 3.70804L152.794 3.72158ZM149.413 22.1684C148.029 22.1684 146.702 21.6231 145.723 20.6523C144.745 19.6815 144.195 18.3649 144.195 16.992C144.195 15.6192 144.745 14.3026 145.723 13.3318C146.702 12.361 148.029 11.8157 149.413 11.8157C150.797 11.8157 152.125 12.361 153.103 13.3318C154.082 14.3026 154.632 15.6192 154.632 16.992C154.632 18.3649 154.082 19.6815 153.103 20.6523C152.125 21.6231 150.797 22.1684 149.413 22.1684Z"/>
</mask>
<path fill-rule="evenodd" clip-rule="evenodd" d="M7.15845 20.1073C4.41076 20.1073 2.53349 17.7715 2.53349 14.732C2.53349 11.66 4.46124 9.31206 7.20347 9.31206C8.41223 9.31206 9.68648 9.76677 10.6633 10.5233L11.7629 8.79104C10.4887 7.6881 8.70419 7.07912 7.01247 7.07912C3.02464 7.07912 0 10.4015 0 14.7889C0 19.0924 2.92914 22.3714 6.92515 22.3714C8.63052 22.3714 10.5269 21.7678 11.782 20.6838L10.6633 18.907C9.73287 19.6202 8.41223 20.1073 7.15708 20.1073H7.15845ZM25.6719 11.909C25.6719 9.23086 23.8751 7.28211 20.785 7.28211H15.8626V22.1549H18.3184V16.5793H20.358L23.313 22.1603H26.2217L22.8656 16.2193C24.6323 15.5332 25.6733 13.9363 25.6733 11.909H25.6719ZM34.0623 7.28211L29.0826 22.1495H31.6448L32.8017 18.4144H38.0979L39.2685 22.1495H41.9643L36.9164 7.28482H34.0514L34.0623 7.28211ZM55.082 9.1226V7.29158H45.199V9.45416H51.9455L44.9548 20.3591V22.1617H55.187V19.9734H48.0654L55.1052 9.12666L55.082 9.1226ZM64.5843 13.5114L61.1735 7.29023H58.3222L63.2882 15.9689V22.1535H65.7576V15.9554L70.8205 7.28211H68.1519L64.5856 13.5073L64.5843 13.5114ZM81.7335 14.2881C82.8112 13.6927 83.4252 12.6141 83.4252 11.1485C83.4252 8.71255 81.7471 7.29158 78.9503 7.29158H74.3117V22.1576H79.7279C82.4702 22.1576 84.2983 20.4118 84.2983 17.9488C84.2983 16.065 83.2069 14.7239 81.7062 14.2881H81.7335ZM92.7719 7.29158L87.7923 22.1576H90.3517L91.5113 18.4225H96.8048L97.9781 22.1576H100.679L95.6411 7.29158H92.7856H92.7719ZM112.532 14.2881C113.613 13.6927 114.234 12.6141 114.234 11.1485C114.234 8.71255 112.569 7.29158 109.759 7.29158H105.12V22.1576H110.55C113.292 22.1576 115.134 20.4118 115.134 17.9488C115.134 16.065 114.043 14.7239 112.556 14.2881H112.532ZM124.17 13.5114L120.773 7.29158H117.908L122.874 15.9703V22.1589H125.35V15.9568L130.398 7.29158H127.737L124.163 13.5127L124.17 13.5114ZM107.577 9.47175H109.46C110.838 9.47175 111.775 10.0293 111.775 11.3961C111.775 12.813 110.807 13.4802 109.579 13.4802H107.573V9.47175H107.577ZM110.19 19.9652H107.575V15.567H110.013C111.577 15.567 112.605 16.2707 112.605 17.7729C112.605 19.2751 111.577 19.9652 110.187 19.9652H110.19ZM92.158 16.3154L94.1499 9.91969L96.169 16.3073H92.158V16.3154ZM76.777 9.47175H78.6597C80.0376 9.47175 80.9735 10.0293 80.9735 11.3961C80.9735 12.813 80.0049 13.4802 78.7825 13.4802H76.777V9.47175ZM79.3896 19.9652H76.7838V15.567H79.2259C80.7948 15.567 81.818 16.2707 81.818 17.7729C81.818 19.2751 80.7948 19.9652 79.4032 19.9652H79.3896ZM33.4538 16.3154L35.4457 9.91969L37.4649 16.3073H33.4538V16.3154ZM20.4644 14.3802H18.3225V9.48122H20.4644C22.1111 9.48122 23.1793 10.3108 23.1793 11.9442C23.1793 13.5046 22.2107 14.3775 20.4644 14.3775V14.3802ZM152.794 3.72158C151.791 3.38325 151.397 2.65247 150.827 1.85402C150.213 0.996641 149.346 0.348942 148.346 0C148.818 1.5157 147.915 3.15319 146.391 3.59978C143.692 4.32002 141.346 5.98329 139.784 8.28341C138.223 10.5835 137.552 13.3657 137.894 16.1177C138.237 18.8697 139.57 21.4064 141.649 23.2607C143.727 25.115 146.411 26.1622 149.206 26.2094C152.001 26.2567 154.719 25.3008 156.86 23.5178C159.001 21.7349 160.421 19.2447 160.857 16.5059C161.294 13.7671 160.719 10.9638 159.238 8.61229C157.756 6.26073 155.469 4.51911 152.795 3.70804L152.794 3.72158ZM149.413 22.1684C148.029 22.1684 146.702 21.6231 145.723 20.6523C144.745 19.6815 144.195 18.3649 144.195 16.992C144.195 15.6192 144.745 14.3026 145.723 13.3318C146.702 12.361 148.029 11.8157 149.413 11.8157C150.797 11.8157 152.125 12.361 153.103 13.3318C154.082 14.3026 154.632 15.6192 154.632 16.992C154.632 18.3649 154.082 19.6815 153.103 20.6523C152.125 21.6231 150.797 22.1684 149.413 22.1684Z" fill="black" stroke="black" stroke-width="2" mask="url(#path-1-inside-1_24223_3192)"/>
</svg>
